<svg viewBox="0 0 800 450" width="800" height="450" xmlns="http://www.w3.org/2000/svg" fill-rule="evenodd" clip-rule="evenodd" stroke-linejoin="round" stroke-miterlimit="2"><path fill="#b80000" d="M0 0h800v450H0z"/><path d="M216.055 376.824a4414.77 4414.77 0 00-22.029-34.038 6793.508 6793.508 0 00-22.408-34.036 2097.23 2097.23 0 00-22.125-32.714v100.788h-23.068V241.62h24.205a2989.764 2989.764 0 0133.562 49.542 3735.272 3735.272 0 0132.997 50.678V241.62h23.07v135.203h-24.204zM273.537 241.621h90.387v20.232h-66.37v34.985h59.186v20.233h-59.186v39.52h69.962v20.233h-93.98V241.62zM499.692 376.824a5481.486 5481.486 0 01-13.804-48.597 3485.59 3485.59 0 01-13.235-48.788 6412.181 6412.181 0 01-13.144 48.694 3680.706 3680.706 0 01-13.708 48.69h-25.339a2157.378 2157.378 0 01-19.098-66.94 2335.258 2335.258 0 01-17.207-68.262h25.906a2525.744 2525.744 0 0011.629 55.31 1653.55 1653.55 0 0012.953 54.176 3560.244 3560.244 0 0013.897-52.002c4.474-17.269 8.794-34.539 12.954-51.812h23.637a3352.466 3352.466 0 0012.858 51.247 3764.743 3764.743 0 0013.615 51.053 1590.91 1590.91 0 0012.858-53.512 2819.625 2819.625 0 0011.535-54.46h25.338a2855.178 2855.178 0 01-17.396 68.262 2588.779 2588.779 0 01-18.91 66.94h-25.339zM617.497 379.661a97.6 97.6 0 01-21.746-2.458c-7.188-1.636-13.933-4.16-20.233-7.564v-21.935c12.981 8.068 27.102 12.102 42.357 12.102 9.454 0 16.735-1.764 21.84-5.295 5.106-3.527 7.659-8.382 7.659-14.56 0-3.529-.757-6.46-2.27-8.793-1.514-2.332-3.563-4.285-6.146-5.862-2.585-1.576-5.546-2.866-8.888-3.876a194.866 194.866 0 00-10.493-2.837c-6.685-1.637-12.764-3.498-18.25-5.578-5.482-2.08-10.21-4.568-14.18-7.47-3.97-2.898-7.03-6.492-9.17-10.779-2.147-4.283-3.216-9.515-3.216-15.692 0-8.321 2.08-15.476 6.239-21.465 4.16-5.985 10.084-10.619 17.775-13.897 7.689-3.277 16.83-4.917 27.42-4.917 6.93 0 13.803.822 20.61 2.459 6.807 1.64 12.858 3.846 18.151 6.619v21.366c-5.04-3.15-10.934-5.702-17.677-7.658-6.745-1.954-13.9-2.931-21.464-2.931-8.574 0-15.255 1.607-20.043 4.821-4.792 3.216-7.186 7.787-7.186 13.71 0 4.287 1.136 7.658 3.404 10.117 2.27 2.458 5.484 4.414 9.645 5.862 4.16 1.45 9.01 2.87 14.56 4.254 6.051 1.512 11.819 3.214 17.301 5.106 5.485 1.892 10.337 4.32 14.559 7.28 4.222 2.963 7.532 6.713 9.928 11.251 2.394 4.54 3.593 10.211 3.593 17.018 0 8.7-2.144 16.138-6.427 22.314-4.287 6.177-10.498 10.939-18.626 14.277-8.133 3.339-17.808 5.011-29.026 5.011M587.577 167.866l-.747.363c-9.022 4.437-18.984 7.644-33.356 7.644h-.06c-17.343.018-29.963-6.303-38.18-14.96-8.22-8.668-12.073-19.576-12.073-28.883 0-13.37 5.39-25 14.482-33.254 9.087-8.241 21.851-13.106 36.567-13.093 9.515-.013 19.144 2.182 31.58 7.091l.871.338v16.37l-2.02-1.114c-11.038-6.051-20.324-8.706-30.566-8.706-20.12.05-34.739 13.324-34.76 31.241.07 18.321 14.053 30.92 35.298 30.996 9.918 0 20.846-3.28 30.899-9.425l2.065-1.271v16.663zM483.63 69.686V191.77H613.36V69.686H483.63zM368.172 86.805h27.643c10.023 0 17.359 2.837 22.196 7.201 4.832 4.354 7.066 10.182 7.066 15.91 0 4.648-1.175 8.653-3.652 11.903-1.842 2.426-4.37 4.42-7.566 6.051 11.835 3.248 19.22 11.67 19.185 22.768 0 5.598-2.245 11.674-7.49 16.322-5.224 4.653-13.351 7.779-24.93 7.779h-32.452V86.805zM334.128 191.77h129.745V69.686H334.128V191.77z" fill="#fff" fill-rule="nonzero"/><path d="M416.895 148.878c-.019-3.493-1.363-6.287-4.329-8.403-2.95-2.12-7.683-3.468-14.361-3.468h-14.297v23.997h14.973c7.435 0 11.914-1.733 14.502-4.021 2.607-2.265 3.498-5.196 3.512-8.105M404.773 120.145c2.792-2.01 4.126-4.85 4.14-9.114 0-2.916-.846-5.415-2.946-7.286-2.095-1.873-5.693-3.21-11.475-3.21h-10.59v22.74h7.276c6.289.018 10.783-1.097 13.595-3.13M218.675 86.805h27.67c10.001 0 17.336 2.837 22.168 7.201 4.833 4.354 7.072 10.182 7.072 15.91 0 4.648-1.164 8.653-3.653 11.903-1.841 2.426-4.354 4.42-7.544 6.051 11.814 3.248 19.21 11.67 19.159 22.768.02 5.598-2.239 11.674-7.465 16.322-5.25 4.653-13.371 7.779-24.951 7.779h-32.456V86.805zM184.64 191.77h129.73V69.686h-129.73V191.77z" fill="#fff" fill-rule="nonzero"/><path d="M255.281 120.145c2.777-2.01 4.13-4.85 4.16-9.114-.01-2.916-.856-5.415-2.955-7.286-2.12-1.873-5.7-3.21-11.481-3.21h-10.57v22.74h7.256c6.294.018 10.789-1.097 13.59-3.13M267.404 148.878c-.015-3.496-1.353-6.274-4.31-8.41-2.966-2.112-7.703-3.466-14.362-3.466h-14.308v24h14.965c7.445 0 11.918-1.73 14.52-4.005 2.589-2.288 3.495-5.2 3.495-8.119" fill="#fff" fill-rule="nonzero"/></svg>
